<mxfile host="app.diagrams.net" modified="2023-11-30T06:25:09.456Z" agent="Mozilla/5.0 (Windows NT 10.0; Win64; x64) AppleWebKit/537.36 (KHTML, like Gecko) Chrome/119.0.0.0 Safari/537.36" etag="0I-OV2OZNq3glzcITicW" version="22.1.5" type="device">
  <diagram name="Page-1" id="XhMFvoOO4gEYTVicfgy9">
    <mxGraphModel dx="954" dy="649" grid="1" gridSize="10" guides="1" tooltips="1" connect="1" arrows="1" fold="1" page="1" pageScale="1" pageWidth="850" pageHeight="1100" math="0" shadow="0">
      <root>
        <mxCell id="0" />
        <mxCell id="1" parent="0" />
        <mxCell id="7JRQcBe-Dzr53MGXrs9c-1" value="" style="rounded=0;whiteSpace=wrap;html=1;" vertex="1" parent="1">
          <mxGeometry x="200" y="80" width="470" height="600" as="geometry" />
        </mxCell>
        <mxCell id="7JRQcBe-Dzr53MGXrs9c-2" value="" style="endArrow=none;html=1;rounded=0;entryX=0.5;entryY=0;entryDx=0;entryDy=0;" edge="1" parent="1" target="7JRQcBe-Dzr53MGXrs9c-1">
          <mxGeometry width="50" height="50" relative="1" as="geometry">
            <mxPoint x="435" y="680" as="sourcePoint" />
            <mxPoint x="390" y="200" as="targetPoint" />
          </mxGeometry>
        </mxCell>
        <mxCell id="7JRQcBe-Dzr53MGXrs9c-3" value="" style="endArrow=none;html=1;rounded=0;exitX=-0.006;exitY=0.058;exitDx=0;exitDy=0;exitPerimeter=0;entryX=1.002;entryY=0.059;entryDx=0;entryDy=0;entryPerimeter=0;" edge="1" parent="1" source="7JRQcBe-Dzr53MGXrs9c-1" target="7JRQcBe-Dzr53MGXrs9c-1">
          <mxGeometry width="50" height="50" relative="1" as="geometry">
            <mxPoint x="440" y="220" as="sourcePoint" />
            <mxPoint x="490" y="170" as="targetPoint" />
          </mxGeometry>
        </mxCell>
        <mxCell id="7JRQcBe-Dzr53MGXrs9c-4" value="&lt;b&gt;&lt;font style=&quot;font-size: 20px;&quot;&gt;ADMIN&lt;/font&gt;&lt;/b&gt;" style="text;html=1;align=center;verticalAlign=middle;resizable=0;points=[];autosize=1;strokeColor=none;fillColor=none;" vertex="1" parent="1">
          <mxGeometry x="265" y="80" width="90" height="40" as="geometry" />
        </mxCell>
        <mxCell id="7JRQcBe-Dzr53MGXrs9c-5" value="&lt;b&gt;&lt;font style=&quot;font-size: 20px;&quot;&gt;System&lt;/font&gt;&lt;/b&gt;" style="text;html=1;align=center;verticalAlign=middle;resizable=0;points=[];autosize=1;strokeColor=none;fillColor=none;" vertex="1" parent="1">
          <mxGeometry x="500" y="80" width="90" height="40" as="geometry" />
        </mxCell>
        <mxCell id="7JRQcBe-Dzr53MGXrs9c-6" value="" style="ellipse;html=1;shape=startState;fillColor=#000000;strokeColor=#ff0000;" vertex="1" parent="1">
          <mxGeometry x="250" y="130" width="30" height="30" as="geometry" />
        </mxCell>
        <mxCell id="7JRQcBe-Dzr53MGXrs9c-7" value="" style="edgeStyle=orthogonalEdgeStyle;html=1;verticalAlign=bottom;endArrow=open;endSize=8;strokeColor=#ff0000;rounded=0;" edge="1" source="7JRQcBe-Dzr53MGXrs9c-6" parent="1">
          <mxGeometry relative="1" as="geometry">
            <mxPoint x="265" y="190" as="targetPoint" />
          </mxGeometry>
        </mxCell>
        <mxCell id="7JRQcBe-Dzr53MGXrs9c-8" value="Register" style="rounded=1;whiteSpace=wrap;html=1;" vertex="1" parent="1">
          <mxGeometry x="220" y="190" width="90" height="20" as="geometry" />
        </mxCell>
        <mxCell id="7JRQcBe-Dzr53MGXrs9c-9" value="Create Account" style="rounded=1;whiteSpace=wrap;html=1;" vertex="1" parent="1">
          <mxGeometry x="500" y="190" width="90" height="20" as="geometry" />
        </mxCell>
        <mxCell id="7JRQcBe-Dzr53MGXrs9c-10" value="" style="endArrow=classic;html=1;rounded=0;exitX=1;exitY=0.5;exitDx=0;exitDy=0;entryX=0;entryY=0.5;entryDx=0;entryDy=0;" edge="1" parent="1" source="7JRQcBe-Dzr53MGXrs9c-8" target="7JRQcBe-Dzr53MGXrs9c-9">
          <mxGeometry width="50" height="50" relative="1" as="geometry">
            <mxPoint x="340" y="260" as="sourcePoint" />
            <mxPoint x="390" y="210" as="targetPoint" />
          </mxGeometry>
        </mxCell>
        <mxCell id="7JRQcBe-Dzr53MGXrs9c-11" value="Login" style="rounded=1;whiteSpace=wrap;html=1;" vertex="1" parent="1">
          <mxGeometry x="220" y="240" width="90" height="20" as="geometry" />
        </mxCell>
        <mxCell id="7JRQcBe-Dzr53MGXrs9c-12" value="" style="endArrow=classic;html=1;rounded=0;exitX=0.5;exitY=1;exitDx=0;exitDy=0;edgeStyle=orthogonalEdgeStyle;entryX=1;entryY=0.5;entryDx=0;entryDy=0;" edge="1" parent="1" source="7JRQcBe-Dzr53MGXrs9c-9" target="7JRQcBe-Dzr53MGXrs9c-11">
          <mxGeometry width="50" height="50" relative="1" as="geometry">
            <mxPoint x="460" y="300" as="sourcePoint" />
            <mxPoint x="510" y="250" as="targetPoint" />
          </mxGeometry>
        </mxCell>
        <mxCell id="7JRQcBe-Dzr53MGXrs9c-13" value="" style="endArrow=classic;html=1;rounded=0;exitX=0.5;exitY=1;exitDx=0;exitDy=0;edgeStyle=orthogonalEdgeStyle;entryX=0;entryY=0.5;entryDx=0;entryDy=0;" edge="1" parent="1" source="7JRQcBe-Dzr53MGXrs9c-11" target="7JRQcBe-Dzr53MGXrs9c-14">
          <mxGeometry width="50" height="50" relative="1" as="geometry">
            <mxPoint x="300" y="330" as="sourcePoint" />
            <mxPoint x="350" y="280" as="targetPoint" />
          </mxGeometry>
        </mxCell>
        <mxCell id="7JRQcBe-Dzr53MGXrs9c-14" value="Authentication" style="rounded=1;whiteSpace=wrap;html=1;" vertex="1" parent="1">
          <mxGeometry x="500" y="270" width="90" height="20" as="geometry" />
        </mxCell>
        <mxCell id="7JRQcBe-Dzr53MGXrs9c-22" value="" style="edgeStyle=orthogonalEdgeStyle;rounded=0;orthogonalLoop=1;jettySize=auto;html=1;" edge="1" parent="1" source="7JRQcBe-Dzr53MGXrs9c-15" target="7JRQcBe-Dzr53MGXrs9c-21">
          <mxGeometry relative="1" as="geometry" />
        </mxCell>
        <mxCell id="7JRQcBe-Dzr53MGXrs9c-15" value="" style="rhombus;whiteSpace=wrap;html=1;" vertex="1" parent="1">
          <mxGeometry x="525" y="330" width="40" height="50" as="geometry" />
        </mxCell>
        <mxCell id="7JRQcBe-Dzr53MGXrs9c-16" value="" style="endArrow=classic;html=1;rounded=0;exitX=0.5;exitY=1;exitDx=0;exitDy=0;entryX=0.5;entryY=0;entryDx=0;entryDy=0;" edge="1" parent="1" source="7JRQcBe-Dzr53MGXrs9c-14" target="7JRQcBe-Dzr53MGXrs9c-15">
          <mxGeometry width="50" height="50" relative="1" as="geometry">
            <mxPoint x="460" y="370" as="sourcePoint" />
            <mxPoint x="510" y="320" as="targetPoint" />
          </mxGeometry>
        </mxCell>
        <mxCell id="7JRQcBe-Dzr53MGXrs9c-24" value="" style="edgeStyle=orthogonalEdgeStyle;rounded=0;orthogonalLoop=1;jettySize=auto;html=1;" edge="1" parent="1" source="7JRQcBe-Dzr53MGXrs9c-17" target="7JRQcBe-Dzr53MGXrs9c-23">
          <mxGeometry relative="1" as="geometry" />
        </mxCell>
        <mxCell id="7JRQcBe-Dzr53MGXrs9c-17" value="Access Dashboard" style="rounded=1;whiteSpace=wrap;html=1;" vertex="1" parent="1">
          <mxGeometry x="220" y="344" width="110" height="20" as="geometry" />
        </mxCell>
        <mxCell id="7JRQcBe-Dzr53MGXrs9c-18" value="" style="endArrow=classic;html=1;rounded=0;exitX=0;exitY=0.5;exitDx=0;exitDy=0;entryX=1;entryY=0.5;entryDx=0;entryDy=0;" edge="1" parent="1" source="7JRQcBe-Dzr53MGXrs9c-15" target="7JRQcBe-Dzr53MGXrs9c-17">
          <mxGeometry width="50" height="50" relative="1" as="geometry">
            <mxPoint x="350" y="400" as="sourcePoint" />
            <mxPoint x="400" y="350" as="targetPoint" />
          </mxGeometry>
        </mxCell>
        <mxCell id="7JRQcBe-Dzr53MGXrs9c-19" value="&lt;font style=&quot;font-size: 12px;&quot;&gt;Yes&lt;/font&gt;" style="text;html=1;align=center;verticalAlign=middle;resizable=0;points=[];autosize=1;strokeColor=none;fillColor=none;" vertex="1" parent="1">
          <mxGeometry x="460" y="330" width="40" height="30" as="geometry" />
        </mxCell>
        <mxCell id="7JRQcBe-Dzr53MGXrs9c-21" value="Provide Valid credentials" style="rounded=1;whiteSpace=wrap;html=1;" vertex="1" parent="1">
          <mxGeometry x="490" y="415" width="110" height="35" as="geometry" />
        </mxCell>
        <mxCell id="7JRQcBe-Dzr53MGXrs9c-26" value="" style="edgeStyle=orthogonalEdgeStyle;rounded=0;orthogonalLoop=1;jettySize=auto;html=1;" edge="1" parent="1" source="7JRQcBe-Dzr53MGXrs9c-23" target="7JRQcBe-Dzr53MGXrs9c-25">
          <mxGeometry relative="1" as="geometry" />
        </mxCell>
        <mxCell id="7JRQcBe-Dzr53MGXrs9c-23" value="Manage Products CatLog&#39;s" style="rounded=1;whiteSpace=wrap;html=1;" vertex="1" parent="1">
          <mxGeometry x="220" y="390" width="110" height="30" as="geometry" />
        </mxCell>
        <mxCell id="7JRQcBe-Dzr53MGXrs9c-28" value="" style="edgeStyle=orthogonalEdgeStyle;rounded=0;orthogonalLoop=1;jettySize=auto;html=1;" edge="1" parent="1" source="7JRQcBe-Dzr53MGXrs9c-25" target="7JRQcBe-Dzr53MGXrs9c-27">
          <mxGeometry relative="1" as="geometry" />
        </mxCell>
        <mxCell id="7JRQcBe-Dzr53MGXrs9c-25" value="Manage Order CatLog&#39;s" style="rounded=1;whiteSpace=wrap;html=1;" vertex="1" parent="1">
          <mxGeometry x="220" y="450" width="110" height="30" as="geometry" />
        </mxCell>
        <mxCell id="7JRQcBe-Dzr53MGXrs9c-30" style="edgeStyle=orthogonalEdgeStyle;rounded=0;orthogonalLoop=1;jettySize=auto;html=1;entryX=0;entryY=0.5;entryDx=0;entryDy=0;" edge="1" parent="1" source="7JRQcBe-Dzr53MGXrs9c-27" target="7JRQcBe-Dzr53MGXrs9c-29">
          <mxGeometry relative="1" as="geometry" />
        </mxCell>
        <mxCell id="7JRQcBe-Dzr53MGXrs9c-32" value="" style="edgeStyle=orthogonalEdgeStyle;rounded=0;orthogonalLoop=1;jettySize=auto;html=1;" edge="1" parent="1" source="7JRQcBe-Dzr53MGXrs9c-27" target="7JRQcBe-Dzr53MGXrs9c-31">
          <mxGeometry relative="1" as="geometry" />
        </mxCell>
        <mxCell id="7JRQcBe-Dzr53MGXrs9c-27" value="Manage Users CatLog&#39;s" style="rounded=1;whiteSpace=wrap;html=1;" vertex="1" parent="1">
          <mxGeometry x="220" y="510" width="110" height="30" as="geometry" />
        </mxCell>
        <mxCell id="7JRQcBe-Dzr53MGXrs9c-29" value="CatLog&#39;s Changed" style="rounded=1;whiteSpace=wrap;html=1;" vertex="1" parent="1">
          <mxGeometry x="490" y="510" width="110" height="30" as="geometry" />
        </mxCell>
        <mxCell id="7JRQcBe-Dzr53MGXrs9c-34" style="edgeStyle=orthogonalEdgeStyle;rounded=0;orthogonalLoop=1;jettySize=auto;html=1;entryX=0;entryY=0.5;entryDx=0;entryDy=0;" edge="1" parent="1" source="7JRQcBe-Dzr53MGXrs9c-31" target="7JRQcBe-Dzr53MGXrs9c-33">
          <mxGeometry relative="1" as="geometry" />
        </mxCell>
        <mxCell id="7JRQcBe-Dzr53MGXrs9c-31" value="Manage Transaction Details" style="rounded=1;whiteSpace=wrap;html=1;" vertex="1" parent="1">
          <mxGeometry x="220" y="570" width="110" height="30" as="geometry" />
        </mxCell>
        <mxCell id="7JRQcBe-Dzr53MGXrs9c-36" value="" style="edgeStyle=orthogonalEdgeStyle;rounded=0;orthogonalLoop=1;jettySize=auto;html=1;" edge="1" parent="1" source="7JRQcBe-Dzr53MGXrs9c-33" target="7JRQcBe-Dzr53MGXrs9c-35">
          <mxGeometry relative="1" as="geometry" />
        </mxCell>
        <mxCell id="7JRQcBe-Dzr53MGXrs9c-33" value="Confirm Transactions details" style="rounded=1;whiteSpace=wrap;html=1;" vertex="1" parent="1">
          <mxGeometry x="490" y="570" width="110" height="30" as="geometry" />
        </mxCell>
        <mxCell id="7JRQcBe-Dzr53MGXrs9c-35" value="" style="ellipse;html=1;shape=endState;fillColor=#000000;strokeColor=#ff0000;" vertex="1" parent="1">
          <mxGeometry x="530" y="630" width="30" height="30" as="geometry" />
        </mxCell>
      </root>
    </mxGraphModel>
  </diagram>
</mxfile>
